<svg version="1.1" id="Layer_1" xmlns="http://www.w3.org/2000/svg" xmlns:xlink="http://www.w3.org/1999/xlink" x="0px" y="0px"
	 width="100%" viewBox="0 0 262 274" enable-background="new 0 0 262 274" xml:space="preserve">

<path fill="#0B1B31" opacity="1.000000" stroke="none" 
	d="
M215.447601,141.631119 
	C215.616455,145.112839 215.923553,148.594238 215.931412,152.076309 
	C215.977646,172.550980 215.954132,193.025787 215.954132,214.820541 
	C199.416397,205.123611 183.669464,195.890366 166.595261,185.878860 
	C172.712006,181.903000 177.584549,178.604294 182.587204,175.516388 
	C189.357422,171.337433 190.888641,168.556381 189.055847,160.830017 
	C188.613770,158.966492 186.417450,157.128098 184.576050,156.049438 
	C169.948700,147.481201 155.211105,139.101181 140.512726,130.654022 
	C139.793472,130.240662 139.124374,129.740051 138.273499,128.756943 
	C142.075775,125.485069 146.036484,122.736336 150.347061,119.958344 
	C155.385025,117.600449 160.073090,115.271812 164.947571,113.259361 
	C166.724030,114.447304 168.317993,115.311958 169.903412,116.192047 
	C176.228546,119.703247 182.551025,123.219238 189.148682,126.985535 
	C189.901733,127.360870 190.380615,127.484131 190.928253,127.925903 
	C198.651306,132.570450 206.305573,136.896500 214.176849,141.382980 
	C214.745117,141.572647 215.096359,141.601883 215.447601,141.631119 
z"/>
<path fill="#50ACDC" opacity="1.000000" stroke="none" 
	d="
M129.222839,161.880661 
	C130.279175,162.281967 131.335510,162.683273 132.741318,163.612000 
	C134.772293,165.050354 136.453781,165.961288 138.135284,166.872223 
	C138.135284,166.872223 138.073822,166.968109 138.194244,167.189758 
	C138.857742,167.618530 139.400818,167.825638 139.943909,168.032730 
	C140.113022,168.081223 140.282120,168.129715 140.757141,168.624619 
	C143.410797,171.458817 145.758545,173.846588 148.106293,176.234375 
	C147.704483,176.517731 147.302658,176.801086 146.314514,177.104431 
	C144.788696,177.938782 143.849213,178.753189 142.909714,179.567581 
	C142.615860,179.775925 142.322006,179.984268 141.391571,180.179688 
	C140.174194,180.796860 139.593399,181.426956 139.012604,182.057053 
	C139.012604,182.057053 138.736023,182.223618 138.226685,182.181351 
	C137.132584,182.708069 136.547836,183.277054 135.963074,183.846039 
	C135.963074,183.846039 135.609039,184.040436 135.104218,184.054886 
	C134.038696,184.544983 133.477997,185.020630 132.917282,185.496277 
	C132.761658,185.593491 132.606049,185.690689 131.853699,185.876282 
	C130.485641,186.570160 129.714310,187.175659 128.942978,187.781143 
	C128.628250,187.932617 128.313522,188.084091 127.376999,188.195663 
	C126.162140,188.747040 125.569084,189.338333 124.976028,189.929626 
	C119.679428,192.990936 114.382828,196.052246 108.379753,199.122894 
	C106.424332,199.988800 105.175392,200.845367 103.926453,201.701950 
	C103.620377,201.880386 103.314308,202.058838 102.359947,202.203674 
	C98.447662,204.335419 95.183655,206.500763 91.919655,208.666092 
	C90.769547,209.314117 89.619431,209.962158 87.861450,210.783768 
	C86.477654,211.540436 85.701736,212.123520 84.925819,212.706604 
	C83.636932,213.524475 82.348045,214.342331 80.343163,215.151245 
	C75.722176,217.634979 71.817192,220.127686 67.912201,222.620377 
	C67.548759,222.761597 67.185318,222.902817 66.171043,223.069595 
	C64.331421,224.013763 63.142628,224.932373 61.953842,225.850998 
	C61.953842,225.850998 61.582607,226.040939 60.969074,225.957306 
	C59.901066,224.238678 59.073471,222.608292 59.053211,220.967926 
	C58.929874,210.980698 58.990192,200.991196 59.338196,191.037048 
	C60.958702,192.093613 62.541805,192.898788 63.435829,194.183487 
	C65.202980,196.722885 67.016754,197.127350 69.756531,195.701508 
	C74.883240,193.033447 80.110489,190.548676 85.367996,188.145355 
	C88.811111,186.571426 89.494064,184.215561 88.168259,180.695648 
	C89.227005,179.562210 90.100868,178.684708 90.974747,177.807220 
	C92.648293,176.830276 94.321838,175.853317 96.662666,174.882477 
	C97.905121,174.334793 98.480293,173.781006 99.055466,173.227219 
	C99.055473,173.227219 99.455040,173.026749 99.978149,172.992020 
	C101.026993,172.448563 101.552734,171.939835 102.078468,171.431091 
	C104.708702,169.931000 107.338943,168.430923 110.638153,166.904037 
	C111.889915,166.347031 112.472702,165.816818 113.055489,165.286606 
	C113.384743,165.143539 113.714005,165.000458 114.612373,164.803375 
	C115.426140,164.454346 115.670792,164.159332 115.915451,163.864319 
	C115.915451,163.864319 115.897118,163.970398 116.187317,163.948090 
	C117.011696,163.414688 117.545883,162.903610 118.080063,162.392548 
	C119.042473,161.884140 120.004875,161.375732 121.732971,160.894409 
	C124.740059,161.241226 126.981445,161.560944 129.222839,161.880661 
z"/>
<path fill="#08172D" opacity="1.000000" stroke="none" 
	d="
M70.488754,58.831493 
	C70.488754,58.831493 70.827454,58.762318 70.949226,59.231514 
	C72.047081,60.481056 73.023163,61.261398 74.006531,62.404537 
	C74.921249,63.806755 75.694733,65.017143 76.761627,65.853035 
	C79.773491,68.212769 82.905754,70.418816 86.194221,72.835060 
	C85.175728,73.638908 84.809547,73.958885 84.413010,74.235298 
	C83.003937,75.217545 81.584511,76.184944 80.169006,77.157967 
	C81.415344,78.543198 82.535583,80.079521 83.951599,81.261459 
	C84.923347,82.072563 86.362221,82.295456 87.490005,82.955940 
	C88.692467,83.660156 89.774551,84.569908 90.909187,85.389931 
	C89.547661,86.258987 88.220078,87.188171 86.815529,87.981003 
	C85.258247,88.860046 82.605309,89.287918 82.224289,90.484009 
	C81.040482,94.200172 80.237923,98.176933 80.151863,102.071701 
	C80.015656,108.236000 80.709961,114.415237 80.736191,120.589493 
	C80.741280,121.787209 79.563316,123.610863 78.473320,124.078232 
	C74.917221,125.603012 74.654572,128.265671 75.015709,131.633469 
	C74.422806,131.953186 73.965248,132.073227 73.116455,132.154694 
	C71.487366,133.110886 70.249496,134.105637 68.912018,135.193359 
	C68.812408,135.286301 68.551178,135.208801 68.178101,135.170441 
	C67.204285,135.753403 66.603539,136.374741 65.798935,137.186615 
	C64.925407,137.660812 64.255730,137.944489 63.139759,138.160339 
	C61.803635,138.068436 60.913792,138.044327 60.017090,137.556458 
	C60.007179,135.324387 60.247112,133.512146 59.937344,131.799301 
	C59.579311,129.819611 58.737091,127.927483 58.105095,125.997337 
	C57.991463,125.475166 57.877827,124.952995 58.318649,124.107712 
	C59.063263,118.053268 59.266178,112.322205 59.386391,106.589409 
	C59.390285,106.403625 58.549400,106.200134 58.102318,106.004906 
	C57.975315,101.292892 57.848312,96.580872 58.288254,91.329124 
	C59.235073,86.824608 59.750870,82.864746 59.894859,78.891411 
	C59.928898,77.952118 58.713051,76.967522 58.072163,76.003769 
	C57.856236,68.706581 57.640312,61.409397 57.796978,53.659157 
	C58.545437,52.901741 58.921310,52.597378 59.297180,52.293011 
	C59.444260,52.380878 59.591339,52.468750 59.921562,53.139572 
	C61.830925,54.444870 63.557152,55.167225 65.283379,55.889576 
	C65.283379,55.889576 65.722221,55.824902 65.921104,56.349209 
	C67.576241,57.526176 69.032501,58.178837 70.488754,58.831493 
z"/>
<path fill="#09172D" opacity="1.000000" stroke="none" 
	d="
M75.151054,131.433777 
	C74.654572,128.265671 74.917221,125.603012 78.473320,124.078232 
	C79.563316,123.610863 80.741280,121.787209 80.736191,120.589493 
	C80.709961,114.415237 80.015656,108.236000 80.151863,102.071701 
	C80.237923,98.176933 81.040482,94.200172 82.224289,90.484009 
	C82.605309,89.287918 85.258247,88.860046 86.815529,87.981003 
	C88.220078,87.188171 89.547661,86.258987 90.909187,85.389931 
	C89.774551,84.569908 88.692467,83.660156 87.490005,82.955940 
	C86.362221,82.295456 84.923347,82.072563 83.951599,81.261459 
	C82.535583,80.079521 81.415344,78.543198 80.169006,77.157967 
	C81.584511,76.184944 83.003937,75.217545 84.413010,74.235298 
	C84.809547,73.958885 85.175728,73.638908 86.194221,72.835060 
	C82.905754,70.418816 79.773491,68.212769 76.761627,65.853035 
	C75.694733,65.017143 74.921249,63.806755 74.320724,62.550560 
	C77.915833,63.833130 81.204025,65.332481 84.492218,66.831825 
	C84.492218,66.831825 84.829895,66.765312 84.970001,67.272758 
	C86.572639,68.463150 88.035172,69.146095 89.497704,69.829041 
	C89.497704,69.829041 89.826874,69.757675 89.961342,70.245979 
	C94.603828,73.085686 99.111839,75.437088 103.619858,77.788490 
	C105.589622,78.771400 107.559387,79.754318 109.824242,81.320282 
	C111.519875,82.560600 112.920410,83.217888 114.320953,83.875168 
	C114.320953,83.875168 114.747322,83.825958 114.934540,84.348915 
	C116.568405,85.526733 118.015060,86.181587 119.461716,86.836449 
	C119.461716,86.836449 119.821960,86.766556 119.960587,87.269478 
	C122.614166,89.104790 125.129120,90.437187 127.644073,91.769577 
	C127.644073,91.769577 127.867661,91.740471 127.987938,92.205467 
	C129.630554,93.361206 131.152878,94.051949 132.675217,94.742691 
	C133.407867,95.063400 134.140533,95.384102 134.939926,96.272057 
	C134.393463,97.563484 133.922195,98.547928 133.145157,98.971680 
	C125.139351,103.337601 117.084106,107.612862 108.850922,111.826202 
	C108.659203,111.739037 108.278992,111.920288 108.022926,111.681763 
	C103.845253,108.946999 99.923637,106.450752 96.008057,103.629272 
	C96.008980,102.870369 96.003876,102.436714 96.182312,101.735184 
	C97.837494,98.390076 97.837494,98.390076 92.484322,97.603104 
	C91.976128,98.773499 91.461029,99.959793 90.572601,101.149002 
	C88.602295,100.496330 87.005318,99.840752 84.560410,98.837090 
	C84.560410,105.426300 84.560410,111.204880 84.205505,117.120041 
	C83.633034,120.345284 83.415459,123.433952 83.087021,126.833603 
	C80.367783,128.574326 77.759422,130.004044 75.151054,131.433777 
z"/>
<path fill="#3065E9" opacity="1.000000" stroke="none" 
	d="
M215.618698,141.135345 
	C215.096359,141.601883 214.745117,141.572647 214.189911,140.893036 
	C213.990097,115.274323 214.028473,90.305817 213.908447,65.338081 
	C213.901657,63.924637 212.594528,62.517452 211.892609,61.107353 
	C210.928772,62.546162 209.334396,63.896824 209.118652,65.440201 
	C208.456207,70.179070 208.396454,74.999130 207.925415,79.770157 
	C207.819885,80.838921 206.993149,81.836479 206.308258,83.263000 
	C202.404922,77.418083 200.046158,76.824585 197.961212,80.849434 
	C197.224686,82.271278 197.608948,84.671165 198.247086,86.330009 
	C199.887390,90.594101 199.220459,94.419899 195.864365,97.144386 
	C194.172882,98.517525 191.315521,98.454475 188.645874,99.147644 
	C184.636780,101.060944 180.967163,102.867439 177.155777,104.316864 
	C174.571243,101.085350 172.551743,97.616280 169.572449,95.495644 
	C166.274796,93.148399 166.365875,90.275055 167.465576,87.682320 
	C169.148056,83.715569 171.783768,80.153130 174.014847,76.419067 
	C174.926697,75.858322 175.838547,75.297569 177.444214,74.806183 
	C178.759811,74.293060 179.381577,73.710579 180.003342,73.128098 
	C191.604614,66.378517 203.205887,59.628944 215.789795,52.307674 
	C215.789795,82.583855 215.789795,111.611725 215.618698,141.135345 
z"/>
<path fill="#3770EB" opacity="1.000000" stroke="none" 
	d="
M173.672272,76.400879 
	C171.783768,80.153130 169.148056,83.715569 167.465576,87.682320 
	C166.365875,90.275055 166.274796,93.148399 169.572449,95.495644 
	C172.551743,97.616280 174.571243,101.085350 177.004517,104.595581 
	C172.917099,107.801964 168.839142,110.372566 164.761169,112.943176 
	C160.073090,115.271812 155.385025,117.600449 150.182785,119.643875 
	C148.360352,119.103699 146.991058,119.011185 145.760544,118.549164 
	C144.469330,118.064346 142.406113,117.396729 142.238831,116.513741 
	C140.964874,109.789009 140.072571,102.991982 139.061447,96.217453 
	C150.484192,89.605865 161.906937,82.994278 173.672272,76.400879 
z"/>
<path fill="#3A7DE6" opacity="1.000000" stroke="none" 
	d="
M108.278992,111.920288 
	C108.278992,111.920288 108.659203,111.739037 109.067558,112.120636 
	C111.053970,113.174232 113.127747,113.422256 114.126350,114.589851 
	C119.088409,120.391609 123.767204,126.435638 128.545761,132.394348 
	C121.828194,136.386505 115.110619,140.378662 107.647568,144.262665 
	C106.265495,144.825958 105.628891,145.497437 104.992294,146.168900 
	C103.537308,147.075455 102.082321,147.982010 100.311348,148.505081 
	C99.229111,145.317123 99.355110,141.127975 97.536774,139.956314 
	C90.905098,135.683167 92.068802,129.034225 91.259949,122.767120 
	C97.105194,118.997963 102.692093,115.459129 108.278992,111.920288 
z"/>
<path fill="#3A81E1" opacity="1.000000" stroke="none" 
	d="
M91.001595,122.997437 
	C92.068802,129.034225 90.905098,135.683167 97.536774,139.956314 
	C99.355110,141.127975 99.229111,145.317123 99.991798,148.521545 
	C95.462914,151.427231 90.937584,153.932953 85.933083,156.697342 
	C85.281349,156.962540 85.108795,156.969070 84.569977,156.975586 
	C82.836960,156.471954 81.374588,156.139221 80.119217,155.436630 
	C72.768593,151.322601 65.466370,147.122086 57.986752,142.951050 
	C57.825684,142.951370 57.528122,143.074783 57.528122,143.074783 
	C57.514786,142.657227 57.501450,142.239655 57.954758,141.437347 
	C58.985264,140.786789 59.549129,140.520966 60.116684,140.218536 
	C60.120369,140.181961 60.183716,140.219315 60.529861,140.212860 
	C61.779358,139.546982 62.682701,138.887573 63.586044,138.228149 
	C64.255730,137.944489 64.925407,137.660812 66.127777,137.166534 
	C67.290703,136.373535 67.920937,135.791168 68.551178,135.208801 
	C68.551178,135.208801 68.812408,135.286301 69.255737,135.151184 
	C70.968613,134.075134 72.238152,133.134201 73.507690,132.193268 
	C73.965248,132.073227 74.422806,131.953186 75.015709,131.633469 
	C77.759422,130.004044 80.367783,128.574326 83.374298,126.707016 
	C84.206100,125.822731 84.639748,125.376030 85.424301,124.879578 
	C87.517326,124.219032 89.259460,123.608231 91.001595,122.997437 
z"/>
<path fill="#326EE3" opacity="1.000000" stroke="none" 
	d="
M128.809906,132.385559 
	C123.767204,126.435638 119.088409,120.391609 114.126350,114.589851 
	C113.127747,113.422256 111.053970,113.174232 109.259277,112.207802 
	C117.084106,107.612862 125.139351,103.337601 133.145157,98.971680 
	C133.922195,98.547928 134.393463,97.563484 135.134995,96.514725 
	C136.272598,96.185051 137.281891,96.179970 138.676300,96.196175 
	C140.072571,102.991982 140.964874,109.789009 142.238831,116.513741 
	C142.406113,117.396729 144.469330,118.064346 145.760544,118.549164 
	C146.991058,119.011185 148.360352,119.103699 149.832901,119.673134 
	C146.036484,122.736336 142.075775,125.485069 137.992966,128.557632 
	C136.357254,129.329147 134.843658,129.776840 132.614777,130.182755 
	C131.261490,130.714737 130.623505,131.288498 129.985535,131.862274 
	C129.681702,132.033768 129.377869,132.205261 128.809906,132.385559 
z"/>
<path fill="#73C2E3" opacity="1.000000" stroke="none" 
	d="
M58.989231,191.002457 
	C58.990192,200.991196 58.929874,210.980698 59.053211,220.967926 
	C59.073471,222.608292 59.901066,224.238678 60.763371,225.991364 
	C60.278469,226.646942 59.385735,227.184830 58.492996,227.722717 
	C58.010628,226.615082 57.127441,225.513672 57.110146,224.398819 
	C56.986565,216.434158 57.030945,208.466751 57.037914,200.500229 
	C57.054470,181.583115 57.079884,162.666016 57.314919,143.411835 
	C57.528122,143.074783 57.825684,142.951370 57.977951,143.353119 
	C58.411346,146.172104 58.692474,148.589340 58.965599,151.474457 
	C58.966919,158.962891 58.976242,165.983429 58.977158,173.471603 
	C58.975574,179.626984 58.982403,185.314713 58.989231,191.002457 
z"/>
<path fill="#6DC2E6" opacity="1.000000" stroke="none" 
	d="
M84.936249,156.975601 
	C85.108795,156.969070 85.281349,156.962540 85.712601,156.967697 
	C85.971298,164.165436 85.971298,171.351486 85.971298,178.987076 
	C87.747414,178.507355 88.963264,178.178955 90.576927,177.828888 
	C90.100868,178.684708 89.227005,179.562210 87.781296,180.713547 
	C86.137390,179.991592 85.065331,178.995804 84.002121,177.532135 
	C84.001259,171.375793 83.991547,165.687347 84.015198,159.680725 
	C84.344460,158.566910 84.640350,157.771255 84.936249,156.975601 
z"/>
<path fill="#050F28" opacity="1.000000" stroke="none" 
	d="
M57.931149,106.445419 
	C58.549400,106.200134 59.390285,106.403625 59.386391,106.589409 
	C59.266178,112.322205 59.063263,118.053268 58.487228,123.889862 
	C57.987553,118.292061 57.873764,112.589005 57.931149,106.445419 
z"/>
<path fill="#050F28" opacity="1.000000" stroke="none" 
	d="
M57.898945,76.441986 
	C58.713051,76.967522 59.928898,77.952118 59.894859,78.891411 
	C59.750870,82.864746 59.235073,86.824608 58.468307,90.892624 
	C57.962856,86.290642 57.844292,81.585426 57.898945,76.441986 
z"/>
<path fill="#0F1F37" opacity="1.000000" stroke="none" 
	d="
M84.314026,66.530518 
	C81.204025,65.332481 77.915833,63.833130 74.313446,62.187759 
	C73.023163,61.261398 72.047081,60.481056 71.034210,59.382027 
	C75.376892,61.451969 79.756363,63.840591 84.314026,66.530518 
z"/>
<path fill="#6DC2E6" opacity="1.000000" stroke="none" 
	d="
M148.463928,176.218750 
	C145.758545,173.846588 143.410797,171.458817 140.984879,168.757965 
	C143.792862,169.947800 146.773331,171.297821 149.535629,173.001572 
	C151.779327,174.385437 151.174316,175.601669 148.463928,176.218750 
z"/>
<path fill="#0F1F37" opacity="1.000000" stroke="none" 
	d="
M103.415634,77.498077 
	C99.111839,75.437088 94.603828,73.085686 90.047211,70.390854 
	C94.402870,72.434166 98.807144,74.820915 103.415634,77.498077 
z"/>
<path fill="#73C2E3" opacity="1.000000" stroke="none" 
	d="
M68.262474,222.670807 
	C71.817192,220.127686 75.722176,217.634979 80.014114,215.198303 
	C76.471626,217.743301 72.542191,220.232269 68.262474,222.670807 
z"/>
<path fill="#73C2E3" opacity="1.000000" stroke="none" 
	d="
M92.271317,208.695602 
	C95.183655,206.500763 98.447662,204.335419 102.097549,202.253525 
	C99.196625,204.466339 95.909805,206.595718 92.271317,208.695602 
z"/>
<path fill="#050F28" opacity="1.000000" stroke="none" 
	d="
M57.955254,126.343071 
	C58.737091,127.927483 59.579311,129.819611 59.937344,131.799301 
	C60.247112,133.512146 60.007179,135.324387 60.019741,137.923630 
	C60.080742,139.242813 60.132229,139.731064 60.183716,140.219315 
	C60.183716,140.219315 60.120369,140.181961 59.826714,139.898911 
	C59.034634,136.079514 58.536205,132.543167 58.037781,129.006821 
	C57.952770,128.718811 57.867764,128.430786 57.857628,127.800461 
	C57.932495,127.458138 57.929974,127.432060 57.929974,127.432060 
	C57.888451,127.184311 57.846931,126.936554 57.955254,126.343071 
z"/>
<path fill="#0F1F37" opacity="1.000000" stroke="none" 
	d="
M127.459305,91.467903 
	C125.129120,90.437187 122.614166,89.104790 120.048431,87.430557 
	C122.423286,88.447891 124.848907,89.807060 127.459305,91.467903 
z"/>
<path fill="#6DC2E6" opacity="1.000000" stroke="none" 
	d="
M129.080414,161.558075 
	C126.981445,161.560944 124.740059,161.241226 122.059044,160.850601 
	C124.289864,157.223740 126.571228,159.915237 129.080414,161.558075 
z"/>
<path fill="#0F1F37" opacity="1.000000" stroke="none" 
	d="
M57.849041,129.436447 
	C58.536205,132.543167 59.034634,136.079514 59.823029,139.935486 
	C59.549129,140.520966 58.985264,140.786789 58.106865,141.162354 
	C57.748318,137.470078 57.704308,133.668076 57.849041,129.436447 
z"/>
<path fill="#6DC2E6" opacity="1.000000" stroke="none" 
	d="
M138.033600,166.559586 
	C136.453781,165.961288 134.772293,165.050354 132.996445,163.845947 
	C134.578705,164.450623 136.255310,165.348785 138.033600,166.559586 
z"/>
<path fill="#0F1F37" opacity="1.000000" stroke="none" 
	d="
M65.100395,55.603951 
	C63.557152,55.167225 61.830925,54.444870 60.052803,53.360531 
	C61.639740,53.771805 63.278576,54.545067 65.100395,55.603951 
z"/>
<path fill="#73C2E3" opacity="1.000000" stroke="none" 
	d="
M62.295879,225.862000 
	C63.142628,224.932373 64.331421,224.013763 65.881973,223.119202 
	C65.041801,224.053146 63.839859,224.963074 62.295879,225.862000 
z"/>
<path fill="#0F1F37" opacity="1.000000" stroke="none" 
	d="
M70.329933,58.530720 
	C69.032501,58.178837 67.576241,57.526176 66.056702,56.524719 
	C67.385979,56.860600 68.778542,57.545273 70.329933,58.530720 
z"/>
<path fill="#0F1F37" opacity="1.000000" stroke="none" 
	d="
M89.332565,69.528854 
	C88.035172,69.146095 86.572639,68.463150 85.053726,67.423096 
	C86.387367,67.786888 87.777390,68.507774 89.332565,69.528854 
z"/>
<path fill="#73C2E3" opacity="1.000000" stroke="none" 
	d="
M104.264565,201.729980 
	C105.175392,200.845367 106.424332,199.988800 108.040833,199.198700 
	C107.139809,200.096115 105.871239,200.927063 104.264565,201.729980 
z"/>
<path fill="#0F1F37" opacity="1.000000" stroke="none" 
	d="
M114.171173,83.583328 
	C112.920410,83.217888 111.519875,82.560600 110.055573,81.565720 
	C111.335007,81.915909 112.678200,82.603699 114.171173,83.583328 
z"/>
<path fill="#0F1F37" opacity="1.000000" stroke="none" 
	d="
M119.310478,86.533737 
	C118.015060,86.181587 116.568405,85.526733 115.057800,84.524590 
	C116.382309,84.861877 117.770775,85.546448 119.310478,86.533737 
z"/>
<path fill="#0F1F37" opacity="1.000000" stroke="none" 
	d="
M132.499847,94.435013 
	C131.152878,94.051949 129.630554,93.361206 128.056335,92.295090 
	C129.444458,92.655594 130.884460,93.391464 132.499847,94.435013 
z"/>
<path fill="#6DC2E6" opacity="1.000000" stroke="none" 
	d="
M143.233078,179.616013 
	C143.849213,178.753189 144.788696,177.938782 146.083939,177.191772 
	C145.478607,178.060928 144.517532,178.862686 143.233078,179.616013 
z"/>
<path fill="#73C2E3" opacity="1.000000" stroke="none" 
	d="
M85.239670,212.727875 
	C85.701736,212.123520 86.477654,211.540436 87.583817,210.959686 
	C87.127197,211.557724 86.340355,212.153427 85.239670,212.727875 
z"/>
<path fill="#6DC2E6" opacity="1.000000" stroke="none" 
	d="
M129.258423,187.805695 
	C129.714310,187.175659 130.485641,186.570160 131.592346,185.962555 
	C131.143127,186.583725 130.358505,187.206970 129.258423,187.805695 
z"/>
<path fill="#8B949F" opacity="1.000000" stroke="none" 
	d="
M59.182053,52.019260 
	C58.921310,52.597378 58.545437,52.901741 57.806549,53.269730 
	C57.984665,52.804073 58.525795,52.274792 59.182053,52.019260 
z"/>
<path fill="#6DC2E6" opacity="1.000000" stroke="none" 
	d="
M125.299698,189.941284 
	C125.569084,189.338333 126.162140,188.747040 127.114807,188.221313 
	C126.857399,188.842239 126.240372,189.397583 125.299698,189.941284 
z"/>
<path fill="#6DC2E6" opacity="1.000000" stroke="none" 
	d="
M133.216721,185.580994 
	C133.477997,185.020630 134.038696,184.544983 134.905777,184.092361 
	C134.646835,184.632172 134.081497,185.148941 133.216721,185.580994 
z"/>
<path fill="#6DC2E6" opacity="1.000000" stroke="none" 
	d="
M136.283112,183.866806 
	C136.547836,183.277054 137.132584,182.708069 138.065521,182.190399 
	C137.810181,182.790344 137.206665,183.338959 136.283112,183.866806 
z"/>
<path fill="#6DC2E6" opacity="1.000000" stroke="none" 
	d="
M139.332306,182.026932 
	C139.593399,181.426956 140.174194,180.796860 141.124786,180.234512 
	C140.880417,180.867111 140.266205,181.431961 139.332306,182.026932 
z"/>
<path fill="#3770EB" opacity="1.000000" stroke="none" 
	d="
M179.678604,73.135834 
	C179.381577,73.710579 178.759811,74.293060 177.768951,74.835175 
	C178.051193,74.244392 178.702530,73.693970 179.678604,73.135834 
z"/>
<path fill="#6DC2E6" opacity="1.000000" stroke="none" 
	d="
M98.743416,173.198212 
	C98.480293,173.781006 97.905121,174.334793 96.990341,174.844284 
	C97.244270,174.256393 97.837822,173.712799 98.743416,173.198212 
z"/>
<path fill="#6DC2E6" opacity="1.000000" stroke="none" 
	d="
M101.777382,171.370178 
	C101.552734,171.939835 101.026993,172.448563 100.198174,172.952667 
	C100.422157,172.401779 100.949226,171.855515 101.777382,171.370178 
z"/>
<path fill="#6DC2E6" opacity="1.000000" stroke="none" 
	d="
M112.745865,165.247833 
	C112.472702,165.816818 111.889915,166.347031 110.973656,166.827698 
	C111.238869,166.255112 111.837563,165.732071 112.745865,165.247833 
z"/>
<path fill="#6DC2E6" opacity="1.000000" stroke="none" 
	d="
M117.780731,162.343491 
	C117.545883,162.903610 117.011696,163.414688 116.168259,163.897736 
	C116.399803,163.344635 116.940605,162.819550 117.780731,162.343491 
z"/>
<path fill="#3A81E1" opacity="1.000000" stroke="none" 
	d="
M105.345261,146.145859 
	C105.628891,145.497437 106.265495,144.825958 107.303268,144.207367 
	C107.035706,144.881088 106.366966,145.501953 105.345261,146.145859 
z"/>
<path fill="#3A7DE6" opacity="1.000000" stroke="none" 
	d="
M130.310715,131.862335 
	C130.623505,131.288498 131.261490,130.714737 132.270721,130.200714 
	C131.973267,130.794434 131.304581,131.328430 130.310715,131.862335 
z"/>
<path fill="#6DC2E6" opacity="1.000000" stroke="none" 
	d="
M139.823395,167.756042 
	C139.400818,167.825638 138.857742,167.618530 138.195923,167.132843 
	C138.619095,167.062622 139.160980,167.270981 139.823395,167.756042 
z"/>
<path fill="#3A81E1" opacity="1.000000" stroke="none" 
	d="
M57.964539,127.423668 
	C57.929974,127.432060 57.932495,127.458138 57.970383,127.364349 
	C58.008266,127.270554 57.999100,127.415276 57.964539,127.423668 
z"/>
<path fill="#6DC2E6" opacity="1.000000" stroke="none" 
	d="
M115.635681,163.918304 
	C115.670792,164.159332 115.426140,164.454346 114.879852,164.766876 
	C114.837456,164.513702 115.096680,164.242996 115.635681,163.918304 
z"/>
<path fill="#285CE5" opacity="1.000000" stroke="none" 
	d="
M188.985352,99.040840 
	C191.315521,98.454475 194.172882,98.517525 195.864365,97.144386 
	C199.220459,94.419899 199.887390,90.594101 198.247086,86.330009 
	C197.608948,84.671165 197.224686,82.271278 197.961212,80.849434 
	C200.046158,76.824585 202.404922,77.418083 206.308258,83.263000 
	C206.993149,81.836479 207.819885,80.838921 207.925415,79.770157 
	C208.396454,74.999130 208.456207,70.179070 209.118652,65.440201 
	C209.334396,63.896824 210.928772,62.546162 211.892609,61.107353 
	C212.594528,62.517452 213.901657,63.924637 213.908447,65.338081 
	C214.028473,90.305817 213.990097,115.274323 213.972900,140.732605 
	C206.305573,136.896500 198.651306,132.570450 190.961487,127.490845 
	C190.560074,125.474380 190.194199,124.211494 189.746429,122.506058 
	C189.438171,114.389290 189.211761,106.715065 188.985352,99.040840 
z"/>

<path fill="#3770EB" opacity="1.000000" stroke="none" 
	d="
M189.148682,126.985535 
	C189.082413,125.659958 189.290329,124.586464 189.663284,123.230789 
	C190.194199,124.211494 190.560074,125.474380 190.892715,127.172333 
	C190.380615,127.484131 189.901733,127.360870 189.148682,126.985535 
z"/>
<path fill="#49A3DE" opacity="1.000000" stroke="none" 
	d="
M83.993271,178.000000 
	C85.065331,178.995804 86.137390,179.991592 87.596420,180.969482 
	C89.494064,184.215561 88.811111,186.571426 85.367996,188.145355 
	C80.110489,190.548676 74.883240,193.033447 69.756531,195.701508 
	C67.016754,197.127350 65.202980,196.722885 63.435829,194.183487 
	C62.541805,192.898788 60.958702,192.093613 59.338196,191.037048 
	C58.982403,185.314713 58.975574,179.626984 59.348904,173.430817 
	C66.126900,170.036713 71.688736,172.093567 77.199112,175.560791 
	C79.187996,176.812241 81.712952,177.211731 83.993271,178.000000 
z"/>
<path fill="#0F1F37" opacity="1.000000" stroke="none" 
	d="
M73.116463,132.154694 
	C72.238152,133.134201 70.968613,134.075134 69.355354,135.058228 
	C70.249496,134.105637 71.487366,133.110886 73.116463,132.154694 
z"/>
<path fill="#0F1F37" opacity="1.000000" stroke="none" 
	d="
M60.529861,140.212860 
	C60.132229,139.731064 60.080742,139.242813 60.026604,138.387390 
	C60.913792,138.044327 61.803635,138.068436 63.139759,138.160339 
	C62.682701,138.887573 61.779358,139.546982 60.529861,140.212860 
z"/>
<path fill="#0F1F37" opacity="1.000000" stroke="none" 
	d="
M68.178101,135.170441 
	C67.920937,135.791168 67.290703,136.373535 66.331627,136.975983 
	C66.603539,136.374741 67.204285,135.753403 68.178101,135.170441 
z"/>

<path fill="#08172D" opacity="1.000000" stroke="none" 
	d="
M93.215157,102.370575 
	C92.537285,102.131210 91.859421,101.891846 91.063736,101.399292 
	C91.461029,99.959793 91.976128,98.773499 92.484322,97.603104 
	C97.837494,98.390076 97.837494,98.390076 95.713821,101.753723 
	C94.446251,102.150276 93.830704,102.260429 93.215157,102.370575 
z"/>
<path fill="#0F1F37" opacity="1.000000" stroke="none" 
	d="
M84.205505,117.120041 
	C84.690056,119.340157 84.819702,121.696854 85.011368,124.491440 
	C84.639748,125.376030 84.206100,125.822731 83.485168,126.396027 
	C83.415459,123.433952 83.633034,120.345284 84.205505,117.120041 
z"/>
<path fill="#0F1F37" opacity="1.000000" stroke="none" 
	d="
M93.402901,102.654770 
	C93.830704,102.260429 94.446251,102.150276 95.530289,102.021591 
	C96.003876,102.436714 96.008980,102.870369 96.008057,103.629272 
	C95.198235,103.615990 94.394440,103.277473 93.402901,102.654770 
z"/>
<path fill="#4294E3" opacity="1.000000" stroke="none" 
	d="
M84.569969,156.975586 
	C84.640350,157.771255 84.344460,158.566910 83.629486,159.680664 
	C82.240051,159.849503 81.201607,159.873581 80.310104,159.523499 
	C73.182243,156.724503 66.082176,153.854691 58.973602,151.006561 
	C58.692474,148.589340 58.411346,146.172104 58.139023,143.352814 
	C65.466370,147.122086 72.768593,151.322601 80.119217,155.436630 
	C81.374588,156.139221 82.836960,156.471954 84.569969,156.975586 
z"/>
<path fill="#469DDF" opacity="1.000000" stroke="none" 
	d="
M58.965599,151.474457 
	C66.082176,153.854691 73.182243,156.724503 80.310104,159.523499 
	C81.201607,159.873581 82.240051,159.849503 83.596123,159.998840 
	C83.991547,165.687347 84.001259,171.375793 84.002121,177.532120 
	C81.712952,177.211731 79.187996,176.812241 77.199112,175.560791 
	C71.688736,172.093567 66.126900,170.036713 59.357315,172.963196 
	C58.976242,165.983429 58.966919,158.962891 58.965599,151.474457 
z"/>
</svg>